<svg width="112" height="52" viewBox="0 0 112 52" fill="none" xmlns="http://www.w3.org/2000/svg">
<path d="M32.1741 20.8024C32.663 21.3597 33.1996 21.7747 34.5589 21.834C35.6559 21.8814 36.6814 21.7866 36.7768 21.1462C36.896 20.4348 36.276 20.0316 34.857 19.8538C33.0923 19.6403 31.0771 19.5573 31.0771 17.9684C31.0771 16.0237 34.0223 16.083 34.9763 16.1423C36.2402 16.2253 37.373 16.7233 37.8499 18.1344H36.6575C36.4787 17.7194 36.0852 17.2688 34.5947 17.1976C33.8077 17.1621 32.3649 17.2332 32.2695 17.8379C32.1741 18.4545 32.973 18.5494 34.4039 18.7273C36.1567 18.9407 37.9811 19.2846 37.9811 21.0514C37.9811 23.0791 35.2028 22.9486 34.2489 22.8893C32.2218 22.7589 31.3872 21.7391 30.9937 20.8024H32.1741Z" fill="#808080"/>
<path d="M44.8797 16.2253V17.3043H42.2922V22.83H41.0998V17.3043H38.5123V16.2253H44.8797Z" fill="#808080"/>
<path d="M45.6517 16.2253H46.8441V19.4743C46.8441 20.9565 47.4523 21.8814 49.1097 21.8814C50.7552 21.8814 51.3514 20.9565 51.3514 19.4743V16.2253H52.5438V19.4743V19.498C52.5319 21.4071 51.4229 22.9486 49.1097 22.9486C46.7845 22.9486 45.6637 21.4071 45.6517 19.498V16.2253Z" fill="#808080"/>
<path d="M58.4967 16.2253C59.6533 16.2253 60.8815 17.4111 60.8815 19.581C60.8815 21.6324 59.6533 22.83 58.4967 22.83H53.6794V16.2253H58.4967ZM54.8957 21.751H58.0317C58.7948 21.751 59.6891 20.9447 59.6891 19.581C59.6891 18.087 58.7948 17.3043 58.0317 17.3043H54.8957V21.751Z" fill="#808080"/>
<path d="M61.899 16.2253H63.0914V22.83H61.899V16.2253Z" fill="#808080"/>
<path d="M67.739 21.8814C69.4203 21.8814 70.1715 20.9328 70.1715 19.4743C70.1715 18.0158 69.4203 17.0672 67.739 17.0672C66.0458 17.0672 65.2946 18.0158 65.2946 19.4743C65.2946 20.9328 66.0458 21.8814 67.739 21.8814ZM64.1022 19.4743C64.1022 17.5652 65.4019 16 67.739 16C70.0642 16 71.3639 17.5652 71.3639 19.4743C71.3639 21.3834 70.0642 22.9486 67.739 22.9486C65.4019 22.9486 64.1022 21.3834 64.1022 19.4743Z" fill="#808080"/>
<path d="M31.574 32.9802C32.2258 33.7233 32.9412 34.2767 34.7537 34.3557C36.2164 34.419 37.5836 34.2925 37.7108 33.4387C37.8698 32.4901 37.0431 31.9526 35.1511 31.7154C32.7982 31.4308 30.1113 31.3202 30.1113 29.2016C30.1113 26.6087 34.0382 26.6877 35.3101 26.7668C36.9954 26.8775 38.5057 27.5415 39.1417 29.4229H37.5518C37.3134 28.8696 36.7887 28.2688 34.8014 28.1739C33.7521 28.1265 31.8283 28.2213 31.7012 29.0277C31.574 29.8498 32.6392 29.9763 34.547 30.2134C36.8841 30.498 39.3166 30.9565 39.3166 33.3123C39.3166 36.0158 35.6122 35.8419 34.3403 35.7628C31.6376 35.5889 30.5247 34.2292 30 32.9802H31.574Z" fill="white"/>
<path d="M44.8739 34.419C47.1156 34.419 48.1172 33.1542 48.1172 31.2095C48.1172 29.2648 47.1156 28 44.8739 28C42.6163 28 41.6147 29.2648 41.6147 31.2095C41.6147 33.1542 42.6163 34.419 44.8739 34.419ZM40.0248 31.2095C40.0248 28.664 41.7578 26.5771 44.8739 26.5771C47.9741 26.5771 49.7071 28.664 49.7071 31.2095C49.7071 33.7549 47.9741 35.8419 44.8739 35.8419C41.7578 35.8419 40.0248 33.7549 40.0248 31.2095Z" fill="white"/>
<path d="M50.7396 26.8775H59.2136V28.3162H52.3295V30.6719H59.0546V32.1107H52.3295V35.6838H50.7396V26.8775Z" fill="white"/>
<path d="M68.2606 26.8775V28.3162H64.8106V35.6838H63.2207V28.3162H59.7707V26.8775H68.2606Z" fill="white"/>
<path d="M78.4158 32.7905C77.8594 34.5929 76.1264 35.8419 73.5827 35.8419C70.5301 35.8419 68.8131 33.8024 68.8131 31.2727C68.8131 28.6008 70.5301 26.5613 73.5827 26.5613C76.3808 26.5613 78.0184 28 78.3999 30.0711H76.8101C76.5239 28.7431 75.5382 27.9842 73.5986 27.9842C71.3251 27.9842 70.4029 29.17 70.4029 31.2727C70.4029 33.2332 71.3251 34.419 73.5986 34.419C75.1725 34.419 76.3967 33.834 76.8101 32.7905H78.4158Z" fill="white"/>
<path d="M80.2929 36C79.4502 36 79.1323 35.5731 79.1323 35.0514C79.1323 34.5138 79.4502 34.087 80.2929 34.087C81.1673 34.087 81.4852 34.5138 81.4852 35.0514C81.4852 35.5731 81.1673 36 80.2929 36Z" fill="white"/>
<path d="M87.0424 34.419C89.2841 34.419 90.2857 33.1542 90.2857 31.2095C90.2857 29.2648 89.2841 28 87.0424 28C84.7848 28 83.7832 29.2648 83.7832 31.2095C83.7832 33.1542 84.7848 34.419 87.0424 34.419ZM82.1934 31.2095C82.1934 28.664 83.9263 26.5771 87.0424 26.5771C90.1427 26.5771 91.8756 28.664 91.8756 31.2095C91.8756 33.7549 90.1427 35.8419 87.0424 35.8419C83.9263 35.8419 82.1934 33.7549 82.1934 31.2095Z" fill="white"/>
<path d="M92.9081 26.8775H94.498L100.11 33.4545V26.8775H101.7V35.6838H100.11L94.498 29.1225V35.6838H92.9081V26.8775Z" fill="white"/>
<path d="M103.208 26.8775H111.682V28.3162H104.798V30.6719H111.523V32.1107H104.798V34.2451H112V35.6838H103.208V26.8775Z" fill="white"/>
<path d="M8.96732 9.55924C8.29716 11.2173 9.30692 14.4362 12.1841 17.7729C14.1792 20.0866 15.0915 22.4297 15.4009 24.4691C15.5903 25.7179 15.5536 26.8529 15.4009 27.7975H0.523284C0.121189 22.747 2.13167 20.889 2.93586 20.3364C2.53376 18.9547 2.29251 16.1084 4.54425 15.7768C3.8731 14.4569 6.55474 8.73023 8.96732 9.55924Z" fill="#EEEEEE"/>
<path fill-rule="evenodd" clip-rule="evenodd" d="M4.91254 15.1204C4.90044 15.3669 4.93386 15.5021 4.96241 15.5583C4.96875 15.5707 4.97454 15.5835 4.97977 15.5965C5.3523 16.5211 6.23173 17.8561 7.44577 18.9223C8.65935 19.988 10.1483 20.7354 11.7465 20.6133C12.0057 20.5935 12.2316 20.7904 12.2511 21.0531C12.2707 21.3159 12.0764 21.5449 11.8173 21.5647C9.87694 21.713 8.14916 20.8024 6.82953 19.6435C5.6574 18.6141 4.76077 17.3496 4.27263 16.3289C3.99633 16.4222 3.79393 16.5703 3.64123 16.7481C3.42476 17.0002 3.28261 17.3426 3.20729 17.7506C3.05648 18.5676 3.19523 19.5318 3.38111 20.1807C3.77248 21.1749 4.32673 22.4299 5.92343 23.3025C7.50119 24.1646 10.1699 24.6914 14.8526 24.0644C14.4919 22.2268 13.6093 20.1508 11.8297 18.0869C10.3617 16.3845 9.35665 14.6971 8.80467 13.204C8.35967 12.0003 8.19212 10.8742 8.36353 9.96138C8.08183 9.99082 7.77595 10.1265 7.44616 10.3771C6.93177 10.7681 6.42859 11.3918 6.00225 12.1086C5.57808 12.8217 5.24843 13.5957 5.06619 14.2598C4.97499 14.5921 4.92411 14.8846 4.91254 15.1204ZM14.9962 25.0076C10.2083 25.6512 7.30494 25.1413 5.47687 24.1424C3.9016 23.2816 3.17955 22.0863 2.74351 21.105C2.41839 21.4165 2.0322 21.8896 1.70114 22.5871C1.22128 23.5981 0.844989 25.1064 0.962999 27.3204H14.992C15.0726 26.6326 15.0877 25.8522 14.9962 25.0076ZM2.39879 20.1455C1.94518 20.5126 1.34167 21.1439 0.853034 22.1734C0.258175 23.4267 -0.152507 25.2409 0.054094 27.8359C0.0738222 28.0837 0.277939 28.2746 0.523157 28.2746H15.4007C15.6313 28.2746 15.8278 28.1053 15.8651 27.8747C16.0255 26.8827 16.0631 25.6972 15.8659 24.3966C15.5431 22.2689 14.5929 19.8417 12.5383 17.459C11.1291 15.8247 10.1906 14.2343 9.68598 12.8692C9.17463 11.486 9.13353 10.406 9.40264 9.74016C9.45189 9.61833 9.44927 9.48127 9.39542 9.36145C9.34156 9.24163 9.24126 9.14971 9.11825 9.10744C8.30954 8.82955 7.52661 9.12353 6.88164 9.61368C6.23566 10.1046 5.65802 10.8396 5.19627 11.6158C4.73235 12.3958 4.36665 13.249 4.15945 14.004C4.05593 14.3813 3.98856 14.7462 3.97252 15.073C3.96684 15.1888 3.96721 15.3067 3.97679 15.4232C3.54724 15.568 3.20017 15.8086 2.93139 16.1216C2.57236 16.5397 2.37776 17.0573 2.28218 17.5751C2.11901 18.459 2.22885 19.4261 2.39879 20.1455Z" fill="#CCCCCC"/>
<path d="M5.19368 32.9865C2.31881 33.3121 1.6001 30.6806 1.6001 29.3242C4.42545 29.5972 11.0162 29.9793 14.7766 29.3242C14.7766 30.6806 14.0579 33.3121 11.183 32.9865V41.939C9.0198 42.5942 6.28879 42.212 5.19368 41.939V32.9865Z" fill="#FAD797"/>
<path fill-rule="evenodd" clip-rule="evenodd" d="M15.08 28.9593C15.1861 29.05 15.2473 29.1835 15.2473 29.3241C15.2473 30.0667 15.0543 31.1682 14.4445 32.0582C13.8816 32.8798 12.9795 33.4922 11.6537 33.4912V41.9389C11.6537 42.1498 11.5171 42.3357 11.3178 42.3961C9.03734 43.0868 6.20986 42.6835 5.08145 42.4022C4.87109 42.3498 4.72322 42.1585 4.72322 41.9389V33.4912C3.39739 33.4922 2.49534 32.8798 1.93245 32.0582C1.32265 31.1682 1.12964 30.0667 1.12964 29.3241C1.12964 29.1897 1.18556 29.0616 1.28365 28.9711C1.38174 28.8807 1.5129 28.8364 1.64488 28.8492C4.47202 29.1224 11.0055 29.4971 14.697 28.8539C14.8337 28.8301 14.9739 28.8687 15.08 28.9593ZM11.263 32.5154C12.5056 32.6477 13.2307 32.1573 13.6715 31.5139C14.0105 31.0192 14.1912 30.4149 14.2652 29.8861C10.6225 30.389 5.0087 30.101 2.10674 29.8494C2.1774 30.3868 2.3586 31.0077 2.70544 31.5139C3.14952 32.162 3.88209 32.655 5.14157 32.5124C5.27465 32.4973 5.40776 32.5404 5.50756 32.6309C5.60736 32.7214 5.6644 32.8507 5.6644 32.9865V41.5558C6.80934 41.7873 8.93042 42.0118 10.7125 41.5737V33.382C10.0861 33.2956 9.46196 33.3696 8.81926 33.4556C8.78154 33.4607 8.74355 33.4658 8.70531 33.471C8.01179 33.5648 7.23799 33.6695 6.55212 33.4394C6.30537 33.3567 6.17153 33.0868 6.25317 32.8366C6.33481 32.5865 6.60102 32.4508 6.84776 32.5336C7.32193 32.6926 7.89787 32.6165 8.69607 32.5097C9.44222 32.4098 10.3341 32.2957 11.263 32.5154Z" fill="#E7A123"/>
</svg>
