<svg width="152" height="52" viewBox="0 0 152 52" fill="none" xmlns="http://www.w3.org/2000/svg">
<path d="M52.1741 20.8024C52.663 21.3597 53.1996 21.7747 54.5589 21.834C55.6559 21.8814 56.6814 21.7866 56.7768 21.1462C56.896 20.4348 56.276 20.0316 54.857 19.8538C53.0923 19.6403 51.0771 19.5573 51.0771 17.9684C51.0771 16.0237 54.0223 16.083 54.9763 16.1423C56.2402 16.2253 57.373 16.7233 57.8499 18.1344H56.6575C56.4787 17.7194 56.0852 17.2688 54.5947 17.1976C53.8077 17.1621 52.3649 17.2332 52.2695 17.8379C52.1741 18.4545 52.973 18.5494 54.4039 18.7273C56.1567 18.9407 57.9811 19.2846 57.9811 21.0514C57.9811 23.0791 55.2028 22.9486 54.2489 22.8893C52.2218 22.7589 51.3872 21.7391 50.9937 20.8024H52.1741Z" fill="#808080"/>
<path d="M64.8797 16.2253V17.3043H62.2922V22.83H61.0998V17.3043H58.5123V16.2253H64.8797Z" fill="#808080"/>
<path d="M65.6517 16.2253H66.8441V19.4743C66.8441 20.9565 67.4523 21.8814 69.1097 21.8814C70.7552 21.8814 71.3514 20.9565 71.3514 19.4743V16.2253H72.5438V19.4743V19.498C72.5319 21.4071 71.4229 22.9486 69.1097 22.9486C66.7845 22.9486 65.6637 21.4071 65.6517 19.498V16.2253Z" fill="#808080"/>
<path d="M78.4967 16.2253C79.6533 16.2253 80.8815 17.4111 80.8815 19.581C80.8815 21.6324 79.6533 22.83 78.4967 22.83H73.6794V16.2253H78.4967ZM74.8957 21.751H78.0317C78.7948 21.751 79.6891 20.9447 79.6891 19.581C79.6891 18.087 78.7948 17.3043 78.0317 17.3043H74.8957V21.751Z" fill="#808080"/>
<path d="M81.899 16.2253H83.0914V22.83H81.899V16.2253Z" fill="#808080"/>
<path d="M87.739 21.8814C89.4203 21.8814 90.1715 20.9328 90.1715 19.4743C90.1715 18.0158 89.4203 17.0672 87.739 17.0672C86.0458 17.0672 85.2946 18.0158 85.2946 19.4743C85.2946 20.9328 86.0458 21.8814 87.739 21.8814ZM84.1022 19.4743C84.1022 17.5652 85.4019 16 87.739 16C90.0642 16 91.3639 17.5652 91.3639 19.4743C91.3639 21.3834 90.0642 22.9486 87.739 22.9486C85.4019 22.9486 84.1022 21.3834 84.1022 19.4743Z" fill="#808080"/>
<path d="M51.574 32.9802C52.2258 33.7233 52.9412 34.2767 54.7537 34.3557C56.2164 34.419 57.5836 34.2925 57.7108 33.4387C57.8698 32.4901 57.0431 31.9526 55.1511 31.7154C52.7982 31.4308 50.1113 31.3202 50.1113 29.2016C50.1113 26.6087 54.0382 26.6877 55.3101 26.7668C56.9954 26.8775 58.5057 27.5415 59.1417 29.4229H57.5518C57.3134 28.8696 56.7887 28.2688 54.8014 28.1739C53.7521 28.1265 51.8283 28.2213 51.7012 29.0277C51.574 29.8498 52.6392 29.9763 54.547 30.2134C56.8841 30.498 59.3166 30.9565 59.3166 33.3123C59.3166 36.0158 55.6122 35.8419 54.3403 35.7628C51.6376 35.5889 50.5247 34.2293 50 32.9802H51.574Z" fill="black"/>
<path d="M64.8739 34.419C67.1156 34.419 68.1172 33.1542 68.1172 31.2095C68.1172 29.2648 67.1156 28 64.8739 28C62.6163 28 61.6147 29.2648 61.6147 31.2095C61.6147 33.1542 62.6163 34.419 64.8739 34.419ZM60.0248 31.2095C60.0248 28.664 61.7578 26.5771 64.8739 26.5771C67.9741 26.5771 69.7071 28.664 69.7071 31.2095C69.7071 33.7549 67.9741 35.8419 64.8739 35.8419C61.7578 35.8419 60.0248 33.7549 60.0248 31.2095Z" fill="black"/>
<path d="M70.7396 26.8775H79.2136V28.3162H72.3295V30.6719H79.0546V32.1107H72.3295V35.6838H70.7396V26.8775Z" fill="black"/>
<path d="M88.2606 26.8775V28.3162H84.8106V35.6838H83.2207V28.3162H79.7707V26.8775H88.2606Z" fill="black"/>
<path d="M98.4158 32.7905C97.8594 34.5929 96.1264 35.8419 93.5827 35.8419C90.5301 35.8419 88.8131 33.8024 88.8131 31.2727C88.8131 28.6008 90.5301 26.5613 93.5827 26.5613C96.3808 26.5613 98.0184 28 98.3999 30.0711H96.8101C96.5239 28.7431 95.5382 27.9842 93.5986 27.9842C91.3251 27.9842 90.4029 29.17 90.4029 31.2727C90.4029 33.2332 91.3251 34.419 93.5986 34.419C95.1725 34.419 96.3967 33.834 96.8101 32.7905H98.4158Z" fill="black"/>
<path d="M100.293 36C99.4502 36 99.1323 35.5731 99.1323 35.0514C99.1323 34.5138 99.4502 34.087 100.293 34.087C101.167 34.087 101.485 34.5138 101.485 35.0514C101.485 35.5731 101.167 36 100.293 36Z" fill="black"/>
<path d="M107.042 34.419C109.284 34.419 110.286 33.1542 110.286 31.2095C110.286 29.2648 109.284 28 107.042 28C104.785 28 103.783 29.2648 103.783 31.2095C103.783 33.1542 104.785 34.419 107.042 34.419ZM102.193 31.2095C102.193 28.664 103.926 26.5771 107.042 26.5771C110.143 26.5771 111.876 28.664 111.876 31.2095C111.876 33.7549 110.143 35.8419 107.042 35.8419C103.926 35.8419 102.193 33.7549 102.193 31.2095Z" fill="black"/>
<path d="M112.908 26.8775H114.498L120.11 33.4545V26.8775H121.7V35.6838H120.11L114.498 29.1225V35.6838H112.908V26.8775Z" fill="black"/>
<path d="M123.208 26.8775H131.682V28.3162H124.798V30.6719H131.523V32.1107H124.798V34.2451H132V35.6838H123.208V26.8775Z" fill="black"/>
<path d="M28.9673 9.55924C28.2972 11.2173 29.3069 14.4362 32.1841 17.7729C34.1792 20.0866 35.0915 22.4297 35.4009 24.4691C35.5903 25.7179 35.5536 26.8529 35.4009 27.7975H20.5233C20.1212 22.747 22.1317 20.889 22.9359 20.3364C22.5338 18.9547 22.2925 16.1084 24.5442 15.7768C23.8731 14.4569 26.5547 8.73023 28.9673 9.55924Z" fill="#EEEEEE"/>
<path fill-rule="evenodd" clip-rule="evenodd" d="M24.9125 15.1204C24.9004 15.3669 24.9339 15.5021 24.9624 15.5583C24.9687 15.5707 24.9745 15.5835 24.9798 15.5965C25.3523 16.5211 26.2317 17.8561 27.4458 18.9223C28.6593 19.988 30.1483 20.7354 31.7465 20.6133C32.0057 20.5935 32.2316 20.7904 32.2511 21.0531C32.2707 21.3159 32.0764 21.5449 31.8173 21.5647C29.8769 21.713 28.1492 20.8024 26.8295 19.6435C25.6574 18.6141 24.7608 17.3496 24.2726 16.3289C23.9963 16.4222 23.7939 16.5703 23.6412 16.7481C23.4248 17.0002 23.2826 17.3426 23.2073 17.7506C23.0565 18.5676 23.1952 19.5318 23.3811 20.1807C23.7725 21.1749 24.3267 22.4299 25.9234 23.3025C27.5012 24.1646 30.1699 24.6914 34.8526 24.0644C34.4919 22.2268 33.6093 20.1508 31.8297 18.0869C30.3617 16.3845 29.3566 14.6971 28.8047 13.204C28.3597 12.0003 28.1921 10.8742 28.3635 9.96138C28.0818 9.99082 27.776 10.1265 27.4462 10.3771C26.9318 10.7681 26.4286 11.3918 26.0022 12.1086C25.5781 12.8217 25.2484 13.5957 25.0662 14.2598C24.975 14.5921 24.9241 14.8846 24.9125 15.1204ZM34.9962 25.0076C30.2083 25.6512 27.3049 25.1413 25.4769 24.1424C23.9016 23.2816 23.1795 22.0863 22.7435 21.105C22.4184 21.4165 22.0322 21.8896 21.7011 22.5871C21.2213 23.5981 20.845 25.1064 20.963 27.3204H34.992C35.0726 26.6326 35.0877 25.8522 34.9962 25.0076ZM22.3988 20.1455C21.9452 20.5126 21.3417 21.1439 20.853 22.1734C20.2582 23.4267 19.8475 25.2409 20.0541 27.8359C20.0738 28.0837 20.2779 28.2746 20.5232 28.2746H35.4007C35.6313 28.2746 35.8278 28.1053 35.8651 27.8747C36.0255 26.8827 36.0631 25.6972 35.8659 24.3966C35.5431 22.2689 34.5929 19.8417 32.5383 17.459C31.1291 15.8247 30.1906 14.2343 29.686 12.8692C29.1746 11.486 29.1335 10.406 29.4026 9.74016C29.4519 9.61833 29.4493 9.48127 29.3954 9.36145C29.3416 9.24163 29.2413 9.14971 29.1183 9.10744C28.3095 8.82955 27.5266 9.12353 26.8816 9.61368C26.2357 10.1046 25.658 10.8396 25.1963 11.6158C24.7324 12.3958 24.3666 13.249 24.1594 14.004C24.0559 14.3813 23.9886 14.7462 23.9725 15.073C23.9668 15.1888 23.9672 15.3067 23.9768 15.4232C23.5472 15.568 23.2002 15.8086 22.9314 16.1216C22.5724 16.5397 22.3778 17.0573 22.2822 17.5751C22.119 18.459 22.2288 19.4261 22.3988 20.1455Z" fill="#CCCCCC"/>
<path d="M25.1937 32.9865C22.3188 33.3121 21.6001 30.6806 21.6001 29.3242C24.4254 29.5972 31.0162 29.9793 34.7766 29.3242C34.7766 30.6806 34.0579 33.3121 31.183 32.9865V41.939C29.0198 42.5942 26.2888 42.212 25.1937 41.939V32.9865Z" fill="#FAD797"/>
<path fill-rule="evenodd" clip-rule="evenodd" d="M35.08 28.9593C35.1861 29.05 35.2473 29.1835 35.2473 29.3241C35.2473 30.0667 35.0543 31.1682 34.4445 32.0582C33.8816 32.8798 32.9795 33.4922 31.6537 33.4912V41.9389C31.6537 42.1498 31.5171 42.3357 31.3178 42.3961C29.0373 43.0868 26.2099 42.6835 25.0814 42.4022C24.8711 42.3498 24.7232 42.1585 24.7232 41.9389V33.4912C23.3974 33.4922 22.4953 32.8798 21.9324 32.0582C21.3227 31.1682 21.1296 30.0667 21.1296 29.3241C21.1296 29.1897 21.1856 29.0616 21.2837 28.9711C21.3817 28.8807 21.5129 28.8364 21.6449 28.8492C24.472 29.1224 31.0055 29.4971 34.697 28.8539C34.8337 28.8301 34.9739 28.8687 35.08 28.9593ZM31.263 32.5154C32.5056 32.6477 33.2307 32.1573 33.6715 31.5139C34.0105 31.0192 34.1912 30.4149 34.2652 29.8861C30.6225 30.389 25.0087 30.101 22.1067 29.8494C22.1774 30.3868 22.3586 31.0077 22.7054 31.5139C23.1495 32.162 23.8821 32.655 25.1416 32.5124C25.2747 32.4973 25.4078 32.5404 25.5076 32.6309C25.6074 32.7214 25.6644 32.8507 25.6644 32.9865V41.5558C26.8093 41.7873 28.9304 42.0118 30.7125 41.5737V33.382C30.0861 33.2956 29.462 33.3696 28.8193 33.4556C28.7815 33.4607 28.7435 33.4658 28.7053 33.471C28.0118 33.5648 27.238 33.6695 26.5521 33.4394C26.3054 33.3567 26.1715 33.0868 26.2532 32.8366C26.3348 32.5865 26.601 32.4508 26.8478 32.5336C27.3219 32.6926 27.8979 32.6165 28.6961 32.5097C29.4422 32.4098 30.3341 32.2957 31.263 32.5154Z" fill="#E7A123"/>
</svg>
