<svg width="170" height="52" viewBox="0 0 170 52" fill="none" xmlns="http://www.w3.org/2000/svg">
<path d="M52.6514 19.7628C53.2476 20.4316 53.9019 20.9296 55.5597 21.0008C56.8975 21.0577 58.148 20.9439 58.2644 20.1755C58.4098 19.3217 57.6536 18.8379 55.9232 18.6245C53.7711 18.3684 51.3136 18.2688 51.3136 16.3621C51.3136 14.0285 54.9053 14.0996 56.0686 14.1708C57.61 14.2704 58.9914 14.868 59.5731 16.5613H58.1189C57.9008 16.0632 57.421 15.5225 55.6033 15.4372C54.6436 15.3945 52.884 15.4798 52.7677 16.2055C52.6514 16.9455 53.6257 17.0593 55.3706 17.2727C57.5082 17.5289 59.733 17.9415 59.733 20.0617C59.733 22.4949 56.3449 22.3383 55.1816 22.2672C52.7095 22.1107 51.6916 20.887 51.2118 19.7628H52.6514Z" fill="#535353"/>
<path d="M68.1459 14.2704V15.5652H64.9904V22.196H63.5363V15.5652H60.3808V14.2704H68.1459Z" fill="#535353"/>
<path d="M69.0875 14.2704H70.5416V18.1692C70.5416 19.9478 71.2832 21.0577 73.3045 21.0577C75.3112 21.0577 76.0383 19.9478 76.0383 18.1692V14.2704H77.4924V18.1692V18.1976C77.4779 20.4885 76.1255 22.3383 73.3045 22.3383C70.4689 22.3383 69.102 20.4885 69.0875 18.1976V14.2704Z" fill="#535353"/>
<path d="M84.7521 14.2704C86.1626 14.2704 87.6604 15.6933 87.6604 18.2972C87.6604 20.7589 86.1626 22.196 84.7521 22.196H78.8774V14.2704H84.7521ZM80.3606 20.9012H84.185C85.1156 20.9012 86.2062 19.9336 86.2062 18.2972C86.2062 16.5043 85.1156 15.5652 84.185 15.5652H80.3606V20.9012Z" fill="#535353"/>
<path d="M88.9013 14.2704H90.3554V22.196H88.9013V14.2704Z" fill="#535353"/>
<path d="M96.0232 21.0577C98.0735 21.0577 98.9896 19.9194 98.9896 18.1692C98.9896 16.419 98.0735 15.2806 96.0232 15.2806C93.9583 15.2806 93.0422 16.419 93.0422 18.1692C93.0422 19.9194 93.9583 21.0577 96.0232 21.0577ZM91.588 18.1692C91.588 15.8783 93.173 14 96.0232 14C98.8587 14 100.444 15.8783 100.444 18.1692C100.444 20.4601 98.8587 22.3383 96.0232 22.3383C93.173 22.3383 91.588 20.4601 91.588 18.1692Z" fill="#535353"/>
<path d="M51.9195 34.3763C52.7144 35.268 53.5869 35.932 55.7972 36.0269C57.5809 36.1028 59.2483 35.951 59.4034 34.9265C59.5973 33.7881 58.5891 33.1431 56.2819 32.8585C53.4124 32.517 50.1357 32.3842 50.1357 29.8419C50.1357 26.7304 54.9247 26.8253 56.4758 26.9202C58.531 27.053 60.3729 27.8498 61.1484 30.1075H59.2096C58.9187 29.4435 58.2789 28.7225 55.8553 28.6087C54.5757 28.5518 52.2297 28.6656 52.0746 29.6332C51.9195 30.6198 53.2185 30.7715 55.5451 31.0561C58.3952 31.3976 61.3617 31.9478 61.3617 34.7747C61.3617 38.019 56.8442 37.8103 55.2931 37.7154C51.997 37.5067 50.6398 35.8751 50 34.3763H51.9195Z" fill="white"/>
<path d="M68.1389 36.1028C70.8727 36.1028 72.0941 34.585 72.0941 32.2514C72.0941 29.9178 70.8727 28.4 68.1389 28.4C65.3857 28.4 64.1642 29.9178 64.1642 32.2514C64.1642 34.585 65.3857 36.1028 68.1389 36.1028ZM62.2254 32.2514C62.2254 29.1968 64.3387 26.6925 68.1389 26.6925C71.9196 26.6925 74.033 29.1968 74.033 32.2514C74.033 35.3059 71.9196 37.8103 68.1389 37.8103C64.3387 37.8103 62.2254 35.3059 62.2254 32.2514Z" fill="white"/>
<path d="M75.2922 27.053H85.6263V28.7794H77.231V31.6063H85.4324V33.3328H77.231V37.6206H75.2922V27.053Z" fill="white"/>
<path d="M96.6593 27.053V28.7794H92.4519V37.6206H90.5131V28.7794H86.3058V27.053H96.6593Z" fill="white"/>
<path d="M109.044 34.1486C108.365 36.3115 106.252 37.8103 103.15 37.8103C99.427 37.8103 97.333 35.3628 97.333 32.3273C97.333 29.121 99.427 26.6735 103.15 26.6735C106.562 26.6735 108.559 28.4 109.024 30.8854H107.085C106.736 29.2917 105.534 28.381 103.169 28.381C100.396 28.381 99.2719 29.804 99.2719 32.3273C99.2719 34.6798 100.396 36.1028 103.169 36.1028C105.088 36.1028 106.581 35.4008 107.085 34.1486H109.044Z" fill="white"/>
<path d="M111.333 38C110.305 38 109.917 37.4877 109.917 36.8617C109.917 36.2166 110.305 35.7043 111.333 35.7043C112.399 35.7043 112.787 36.2166 112.787 36.8617C112.787 37.4877 112.399 38 111.333 38Z" fill="white"/>
<path d="M119.564 36.1028C122.298 36.1028 123.519 34.585 123.519 32.2514C123.519 29.9178 122.298 28.4 119.564 28.4C116.811 28.4 115.589 29.9178 115.589 32.2514C115.589 34.585 116.811 36.1028 119.564 36.1028ZM113.65 32.2514C113.65 29.1968 115.764 26.6925 119.564 26.6925C123.345 26.6925 125.458 29.1968 125.458 32.2514C125.458 35.3059 123.345 37.8103 119.564 37.8103C115.764 37.8103 113.65 35.3059 113.65 32.2514Z" fill="white"/>
<path d="M126.717 27.053H128.656L135.5 34.9455V27.053H137.439V37.6206H135.5L128.656 29.747V37.6206H126.717V27.053Z" fill="white"/>
<path d="M139.278 27.053H149.612V28.7794H141.217V31.6063H149.418V33.3328H141.217V35.8941H150V37.6206H139.278V27.053Z" fill="white"/>
<path d="M28.9673 9.55924C28.2972 11.2173 29.3069 14.4362 32.1841 17.7729C34.1792 20.0866 35.0915 22.4297 35.4009 24.4691C35.5903 25.7179 35.5536 26.8529 35.4009 27.7975H20.5233C20.1212 22.747 22.1317 20.889 22.9359 20.3364C22.5338 18.9547 22.2925 16.1084 24.5442 15.7768C23.8731 14.4569 26.5547 8.73023 28.9673 9.55924Z" fill="#EEEEEE"/>
<path fill-rule="evenodd" clip-rule="evenodd" d="M24.9125 15.1204C24.9004 15.3669 24.9339 15.5021 24.9624 15.5583C24.9687 15.5707 24.9745 15.5835 24.9798 15.5965C25.3523 16.5211 26.2317 17.8561 27.4458 18.9223C28.6593 19.988 30.1483 20.7354 31.7465 20.6133C32.0057 20.5935 32.2316 20.7904 32.2511 21.0531C32.2707 21.3159 32.0764 21.5449 31.8173 21.5647C29.8769 21.713 28.1492 20.8024 26.8295 19.6435C25.6574 18.6141 24.7608 17.3496 24.2726 16.3289C23.9963 16.4222 23.7939 16.5703 23.6412 16.7481C23.4248 17.0002 23.2826 17.3426 23.2073 17.7506C23.0565 18.5676 23.1952 19.5318 23.3811 20.1807C23.7725 21.1749 24.3267 22.4299 25.9234 23.3025C27.5012 24.1646 30.1699 24.6914 34.8526 24.0644C34.4919 22.2268 33.6093 20.1508 31.8297 18.0869C30.3617 16.3845 29.3566 14.6971 28.8047 13.204C28.3597 12.0003 28.1921 10.8742 28.3635 9.96138C28.0818 9.99082 27.776 10.1265 27.4462 10.3771C26.9318 10.7681 26.4286 11.3918 26.0022 12.1086C25.5781 12.8217 25.2484 13.5957 25.0662 14.2598C24.975 14.5921 24.9241 14.8846 24.9125 15.1204ZM34.9962 25.0076C30.2083 25.6512 27.3049 25.1413 25.4769 24.1424C23.9016 23.2816 23.1795 22.0863 22.7435 21.105C22.4184 21.4165 22.0322 21.8896 21.7011 22.5871C21.2213 23.5981 20.845 25.1064 20.963 27.3204H34.992C35.0726 26.6326 35.0877 25.8522 34.9962 25.0076ZM22.3988 20.1455C21.9452 20.5126 21.3417 21.1439 20.853 22.1734C20.2582 23.4267 19.8475 25.2409 20.0541 27.8359C20.0738 28.0837 20.2779 28.2746 20.5232 28.2746H35.4007C35.6313 28.2746 35.8278 28.1053 35.8651 27.8747C36.0255 26.8827 36.0631 25.6972 35.8659 24.3966C35.5431 22.2689 34.5929 19.8417 32.5383 17.459C31.1291 15.8247 30.1906 14.2343 29.686 12.8692C29.1746 11.486 29.1335 10.406 29.4026 9.74016C29.4519 9.61833 29.4493 9.48127 29.3954 9.36145C29.3416 9.24163 29.2413 9.14971 29.1183 9.10744C28.3095 8.82955 27.5266 9.12353 26.8816 9.61368C26.2357 10.1046 25.658 10.8396 25.1963 11.6158C24.7324 12.3958 24.3666 13.249 24.1594 14.004C24.0559 14.3813 23.9886 14.7462 23.9725 15.073C23.9668 15.1888 23.9672 15.3067 23.9768 15.4232C23.5472 15.568 23.2002 15.8086 22.9314 16.1216C22.5724 16.5397 22.3778 17.0573 22.2822 17.5751C22.119 18.459 22.2288 19.4261 22.3988 20.1455Z" fill="#CCCCCC"/>
<path d="M25.1937 32.9865C22.3188 33.3121 21.6001 30.6806 21.6001 29.3242C24.4254 29.5972 31.0162 29.9793 34.7766 29.3242C34.7766 30.6806 34.0579 33.3121 31.183 32.9865V41.939C29.0198 42.5942 26.2888 42.212 25.1937 41.939V32.9865Z" fill="#FAD797"/>
<path fill-rule="evenodd" clip-rule="evenodd" d="M35.08 28.9593C35.1861 29.05 35.2473 29.1835 35.2473 29.3241C35.2473 30.0667 35.0543 31.1682 34.4445 32.0582C33.8816 32.8798 32.9795 33.4922 31.6537 33.4912V41.9389C31.6537 42.1498 31.5171 42.3357 31.3178 42.3961C29.0373 43.0868 26.2099 42.6835 25.0814 42.4022C24.8711 42.3498 24.7232 42.1585 24.7232 41.9389V33.4912C23.3974 33.4922 22.4953 32.8798 21.9324 32.0582C21.3227 31.1682 21.1296 30.0667 21.1296 29.3241C21.1296 29.1897 21.1856 29.0616 21.2837 28.9711C21.3817 28.8807 21.5129 28.8364 21.6449 28.8492C24.472 29.1224 31.0055 29.4971 34.697 28.8539C34.8337 28.8301 34.9739 28.8687 35.08 28.9593ZM31.263 32.5154C32.5056 32.6477 33.2307 32.1573 33.6715 31.5139C34.0105 31.0192 34.1912 30.4149 34.2652 29.8861C30.6225 30.389 25.0087 30.101 22.1067 29.8494C22.1774 30.3868 22.3586 31.0077 22.7054 31.5139C23.1495 32.162 23.8821 32.655 25.1416 32.5124C25.2747 32.4973 25.4078 32.5404 25.5076 32.6309C25.6074 32.7214 25.6644 32.8507 25.6644 32.9865V41.5558C26.8093 41.7873 28.9304 42.0118 30.7125 41.5737V33.382C30.0861 33.2956 29.462 33.3696 28.8193 33.4556C28.7815 33.4607 28.7435 33.4658 28.7053 33.471C28.0118 33.5648 27.238 33.6695 26.5521 33.4394C26.3054 33.3567 26.1715 33.0868 26.2532 32.8366C26.3348 32.5865 26.601 32.4508 26.8478 32.5336C27.3219 32.6926 27.8979 32.6165 28.6961 32.5097C29.4422 32.4098 30.3341 32.2957 31.263 32.5154Z" fill="#E7A123"/>
</svg>
